<svg xmlns="http://www.w3.org/2000/svg" viewBox="0 0 1500 300">
  <defs>
    <style>
      .cls-1 {
        fill: #3c4147;
      }

      .cls-2 {
        fill: #d07c75;
      }

      .cls-3 {
        fill: #f3f2ef;
      }

      .cls-4 {
        fill: #f9bb5f;
      }

      .cls-5 {
        fill: #f18c09;
      }

      .cls-6 {
        fill: #808487;
      }

      .cls-7 {
        fill: #5f6568;
      }

      .cls-8 {
        fill: #fcfcfc;
        stroke: #3c4147;
        stroke-width: 2px;
      }

      .cls-10, .cls-8 {
        stroke-miterlimit: 10;
      }

      .cls-9 {
        fill: #1a1f27;
      }

      .cls-10 {
        fill: none;
        stroke: #000;
      }

      .cls-11 {
        fill: #232c70;
      }

      .cls-12 {
        fill: #bbe1ee;
      }

      .cls-13 {
        fill: #0e4203;
      }

      .cls-14 {
        fill: #1e3896;
      }

      .cls-15 {
        fill: #543204;
      }

      .cls-16 {
        fill: #e8beba;
      }
    </style>
  </defs>
  <title>Bullies_1</title>
  <g id="SPRITE2">
    <g id="Layer_20" data-name="Layer 20">
      <g id="Layer_17" data-name="Layer 17">
        <g>
          <path class="cls-1" d="M169.29,186.89l-.47,32.35s4.27,8,7.86,5.15-6.24-5.86-6.24-5.86l.39-31.37Z"/>
          <path class="cls-1" d="M142.38,183.32l-.4,30s-3.76,5.21-6.57,1,5.21-2.38,5.21-2.38l.45-28.84Z"/>
          <g>
            <g>
              <path class="cls-2" d="M172.26,186.65a68.86,68.86,0,0,1-25-3.57c-5.41-1.71-7-3.7-7.13-13.67-.53-41.18.87-67.27,11.84-107.89,2.66-9.84,4.81-11.37,10.58-12.23,9-1.35,17.62-1.63,25.82.12,6.19,1.32,8,3.5,5.33,13.71-11.22,42.15-14.5,67.68-13,110.73C181.07,184.27,178.55,186.28,172.26,186.65Z"/>
              <path class="cls-2" d="M170.65,186.78c-9.83-.07-19.55-1.76-29.44-4.17-3.67-.9-4.82-2.3-4.86-9.44-.24-45.14,1-71.54,12.85-116,1.88-7,3.37-8.11,7.24-8.44,10.41-.89,20.58-1.25,30.39.17,4.36.63,5.68,2,3.72,9.4-12.38,46.94-14.58,72.11-14,119.71C176.64,185.5,175,186.81,170.65,186.78Z"/>
              <path class="cls-3" d="M172.53,180.26a265,265,0,0,1-32.89-4.08c-2.18-.39-2.89-1.23-2.9-5.63-.15-43.73.6-66.93,12-110.14,1.15-4.34,2.06-5,4.33-5a285.55,285.55,0,0,1,33.84.83c2.68.25,3.42,1.23,2.23,5.74-11.79,44.85-14.19,67.27-13.07,112.93C176.19,179.48,175.17,180.4,172.53,180.26Z"/>
            </g>
            <g>
              <path class="cls-4" d="M166.22,50.45c2.77-10,2.43-20.19-3-29.58-17-2.66-24,13.28-28.4,26.7,5.15,14.63,6.43,29.05,2.7,44.14-5.64-4.71-4-14.58-3.38-20.75-6.22,9.8-6.09,21.26-4.89,32.39,2.28,2.18,4.83,3.84,8.13,3.53,4.44-14.64,10.22-38.91,14.37-51.27S159.2,49.21,166.22,50.45Z"/>
              <path class="cls-5" d="M164.51,41.54c-6.59-2.72-11.71-1.41-15.46,4.67.76,1.38,1.51,2.76,2.27,4.13l-.87,3.35c4.25-3,8.77-4.93,14-4.06l-1.77-3.28Z"/>
            </g>
            <path class="cls-1" d="M172.87,52.61c-1.86,0-3.72-.06-5.59-.1-.17,0-.16-.26-.13-.35h0c0-.09.15-.37.32-.37,1.86.05,3.73.05,5.6.09.17,0,.16.26.14.35h0C173.18,52.33,173.05,52.61,172.87,52.61Z"/>
            <path class="cls-6" d="M177.53,54.14h0c-.71,0-.74-.92-.58-1.48h0c.16-.55.63-1.47,1.34-1.43h0c.71,0,.75.92.59,1.47h0C178.72,53.26,178.24,54.18,177.53,54.14Z"/>
            <path class="cls-7" d="M147.29,99.89c1.1,2.52,2.31,5.4,3.34,8a1.63,1.63,0,0,1-.63,2.07c-2.27,1.56-4.89,3.24-7.16,4.78-.43.3-.6-.34-.24-.8,1.29-1.61,3.14-3.56,4.62-5.17a1.44,1.44,0,0,0,.4-1.31c-.32-2.17-.8-4.87-1-6.92C146.58,99.86,147.06,99.38,147.29,99.89Z"/>
            <path class="cls-7" d="M167.52,103.89c-2.35,1.79-5.09,3.92-7.35,5.8a1.48,1.48,0,0,0-.45,2c1.44,2.26,3.19,4.62,4.76,6.75.3.42.74-.06.58-.62-.52-1.9-1.45-4.2-2.11-6.17a1.25,1.25,0,0,1,.25-1.29c1.4-1.83,3.35-4,4.65-5.77C168.25,104.09,168,103.51,167.52,103.89Z"/>
            <path class="cls-8" d="M141.1,131.7c4,.41,7.58.92,11.51,1.47s8.27,1,12.13,1.51c1.51,9.31-.23,20-11,16.74C143.75,148.36,140.63,140.58,141.1,131.7Z"/>
          </g>
          <path class="cls-1" d="M136.08,135.24c-15,19.17-10.23,19.26,4.09,38.5.13.19.33.43.42.6.49,3,1.59,4.06,5,5.3,1.12.4-2.88-5.06-4.28-5.59-11.59-15.67-18.9-19.46-5.1-37.61a.9.9,0,0,0,.14-.52S136.57,134.62,136.08,135.24Z"/>
          <path class="cls-1" d="M178.77,136.5c20.94,22.26,17.94,19.29-5.65,40.12a4.07,4.07,0,0,0-.67.63c-1.3,3.67-2.74,4.94-7.56,5-1.57,0,4.75-5.59,6.69-5.74,18.25-16.21,27.65-17.38,7-38.61a.67.67,0,0,1-.14-.57C178.48,137.24,178.15,135.83,178.77,136.5Z"/>
        </g>
      </g>
      <g>
        <path class="cls-1" d="M186.08,155.89s-19-2.4-49.13,1l-.87.1s-3.68-2.64-7.92,1.6c0,0-1.88,1.62,7.72-.61a346.15,346.15,0,0,1,48.85-1.5,2.83,2.83,0,0,0,.65-.05C185.84,156.36,186.47,156,186.08,155.89Z"/>
        <path class="cls-1" d="M221.67,219.1l-.55,37.38s4.94,9.23,9.08,5.95-7.21-6.77-7.21-6.77l.45-36.24Z"/>
        <path class="cls-1" d="M190.58,215l-.47,34.68s-4.35,6-7.6,1.12,6-2.75,6-2.75l.52-33.32Z"/>
        <g>
          <path class="cls-9" d="M225,218.86c-9.58.45-19-1.11-28.86-4.12-6.3-1.94-8.05-4.87-8.57-15.82-2.18-45.23,4.87-87.44,13.4-131.49,2.07-10.67,4.57-13.38,11.13-14.75,10.21-2.15,20.14-3.17,29.76-2,7.28.89,9.43,4,7.34,15.14-8.66,45.76-18.73,91.42-14.93,138.43C235.23,215.62,232.29,218.51,225,218.86Z"/>
          <path class="cls-9" d="M223.17,219c-11.28-.18-22.5-2.08-34-4.81-4.27-1-5.5-3.15-5.87-10.95-2.36-49.35,5-92.51,14.12-140.55,1.45-7.59,3.2-9.51,7.63-10.18,11.89-1.79,23.58-3,35-2.33,5.1.3,6.61,2.38,5.09,10.42-9.56,50.89-18.87,96.06-15.41,148.29C230.31,217.15,228.2,219.07,223.17,219Z"/>
          <path class="cls-3" d="M225.28,211.41a303.1,303.1,0,0,1-38.06-4.78c-2.53-.48-3.38-1.82-3.58-6.6-2-47.53,4.82-87.17,13.53-133.46.87-4.66,1.94-5.81,4.55-6a362.92,362.92,0,0,1,39.07-1.85c3.1,0,4,1.45,3.06,6.33-9.07,48.56-18.1,90.44-14.8,140.28C229.38,210.29,228.33,211.6,225.28,211.41Z"/>
          <path class="cls-1" d="M224.3,55.71c-2.15.1-4.3.25-6.45.35-.19,0-.21-.28-.19-.39h0c0-.11.15-.44.35-.45,2.15-.1,4.3-.25,6.45-.36.2,0,.22.28.2.39h0C224.63,55.37,224.5,55.7,224.3,55.71Z"/>
          <path class="cls-6" d="M229.79,57.09h0c-.81,0-.92-1-.79-1.65h0c.14-.66.61-1.75,1.43-1.76h0c.82,0,.93,1,.8,1.65h0C231.09,56,230.61,57.08,229.79,57.09Z"/>
          <path class="cls-8" d="M191.32,151.31c4.59.4,8.56.94,13,1.53s9.48,1.12,13.84,2c.17,10.73-2.47,26.38-15.28,21.64C191.1,172.1,189.61,161.53,191.32,151.31Z"/>
          <path class="cls-10" d="M197.4,108.72c0-1.09.6-1.52,1.65-1.31,8,.8,15.61,2.12,23.81,1.78.64,0,.68,1.65.25,2.28"/>
          <path class="cls-10" d="M187,119.56a1.66,1.66,0,0,1-1.78,1.36,1.32,1.32,0,0,1-1.21-1.63,1.66,1.66,0,0,1,1.77-1.36A1.34,1.34,0,0,1,187,119.56Z"/>
          <path class="cls-10" d="M234,123.66a1.82,1.82,0,0,1-2,1.4,1.49,1.49,0,0,1-1.43-1.75,1.8,1.8,0,0,1,2-1.39A1.49,1.49,0,0,1,234,123.66Z"/>
          <path class="cls-11" d="M206.07,111.5c-6.59-3.75-12.6-3.66-18.19,1.63a26.28,26.28,0,0,0-3.47,14.1c.4,3.91,1.16,6.15,4.75,6.62s6.74-1.53,9.49-4.61S209.49,116,206.07,111.5Z"/>
          <path class="cls-10" d="M206.07,111.5c-6.59-3.75-12.6-3.66-18.19,1.63a26.28,26.28,0,0,0-3.47,14.1c.4,3.91,1.16,6.15,4.75,6.62s6.74-1.53,9.49-4.61S209.49,116,206.07,111.5Z"/>
          <path class="cls-11" d="M213.73,112.15c7.45-2.42,14.17-2.12,18.51,4.91A24.76,24.76,0,0,1,230.48,132c-1.94,3.8-3.86,5.78-7.7,5.36s-6.43-2.59-8.23-6.58S209.05,115.66,213.73,112.15Z"/>
          <path class="cls-10" d="M213.73,112.15c7.45-2.42,14.17-2.12,18.51,4.91A24.76,24.76,0,0,1,230.48,132c-1.94,3.8-3.86,5.78-7.7,5.36s-6.43-2.59-8.23-6.58S209.05,115.66,213.73,112.15Z"/>
          <path class="cls-10" d="M206.83,115.23c1.84-2.23,3.47-2.27,4.76.42"/>
        </g>
        <path class="cls-1" d="M229.56,161.34c31.83,18.83,13.38,26.63-7.42,46.27a7.46,7.46,0,0,0-.74.75c-1.35,4.3-3,5.81-8.53,6-1.81.07,5.27-6.65,7.5-6.91,18-17.16,36.52-25,9.44-44.58-.17-.12-.4-.48-.36-.56S228.61,160.78,229.56,161.34Z"/>
      </g>
      <g id="Layer_18" data-name="Layer 18">
        <g>
          <path class="cls-9" d="M297.07,175.92l-39.15-4.77c-1.23-.15-2.22-1.92-2.22-3.94V39.33c0-2,1-3.89,2.22-4.17l39.15-9c1.5-.34,2.73,1.21,2.73,3.46V172.16C299.8,174.41,298.57,176.1,297.07,175.92Z"/>
          <path class="cls-9" d="M295.62,175.74l-42.3-5.15c-.27,0-.5-.43-.5-.89V37.15c0-.45.23-.87.5-.93l42.3-9.75c.34-.07.61.28.61.78V174.9C296.23,175.4,296,175.78,295.62,175.74Z"/>
          <polygon class="cls-12" points="295.06 163.32 253.78 159.5 253.78 48.45 295.06 40.28 295.06 163.32"/>
          <path class="cls-1" d="M279.52,32.73l-11.11,2.49c-.14,0-.26-.13-.26-.35V34c0-.23.12-.44.26-.47L279.52,31c.15,0,.27.13.27.37v.85C279.79,32.48,279.67,32.7,279.52,32.73Z"/>
          <path class="cls-6" d="M265.85,39.08c0,1.13-.57,2.17-1.27,2.32s-1.26-.65-1.26-1.78.57-2.16,1.26-2.31S265.85,38,265.85,39.08Z"/>
          <path class="cls-13" d="M297.6,39.56l.48,1.14s5.65,1.77,8.07-2.63-4.08-9.47-5.06-9.63S297.6,39.56,297.6,39.56Z"/>
          <path class="cls-14" d="M300.6,32.69s-1.13,4.06-1.61,6.25a3.58,3.58,0,0,1-1.16,1.5c-.71.42-12.69,2.33-17.36-1.58s-5.08-5.54-5-9c0,0,2.6-14.75,8-18.63,0,0,2.28-2.65,9.15-1.26,7.1,1.43,8.9,9,8.9,9S303.62,23.26,300.6,32.69Z"/>
          <path class="cls-13" d="M292.41,9.48a2.53,2.53,0,0,1,1.42.34c.58.4-.21,1.16-.21,1.16s-1.19-.08-1.45-.72S292.41,9.48,292.41,9.48Z"/>
          <path class="cls-1" d="M269.53,86.39c0-.13-.1-.21-.18-.18l-9.14,3.22c-.08,0-.13.16-.12.3v.1c0,.13.09.21.17.18l2.36-.85a8.75,8.75,0,0,0,1.09,3.71,2.1,2.1,0,0,0,.47.58c3.91,3.26,3.7-6.2,3.7-6.2h0l1.51-.55A.29.29,0,0,0,269.53,86.39Z"/>
          <path class="cls-1" d="M274.59,85.46c0-.13.1-.22.18-.21l9.85,1.51c.09,0,.15.15.14.29l0,.11c0,.15-.1.25-.19.23L281.92,87A10,10,0,0,1,280.73,91a2.55,2.55,0,0,1-.5.68c-4.15,4-3.94-5.7-3.94-5.7h0l-1.57-.26C274.63,85.74,274.57,85.61,274.59,85.46Z"/>
          <path class="cls-1" d="M263.28,123l9.47-3,10.05-3.15s3.47,19.75-9.27,19.18C261.55,135.48,263.28,123,263.28,123Z"/>
          <path class="cls-1" d="M253.21,122.21c-16.24,15.45-8.35,20.19,3.33,37.22l.37.51c.33,3.84,1.69,4.83,3.81,3.86,1.21-1.05-3.27-5-3.33-5.05-9.84-13.75-20-20.56-4.38-35.21a1.4,1.4,0,0,0,.28-.45C253.37,122.9,253.55,122.11,253.21,122.21Z"/>
          <path class="cls-1" d="M296.15,123.48s11.47-15.64,22.35-46.61c.11-.31.22-.62.32-.93,0,0,5.44-2.78,2.09-8.81,0,0-1.12-2.53-3.24,8.21,0,0-9,25.55-21.57,46.61a2.12,2.12,0,0,0-.23.6C295.76,123,295.88,123.76,296.15,123.48Z"/>
          <path class="cls-1" d="M283.76,173.19l-.25,31.49s4.27,7.57,7.78,4.65-6.18-5.42-6.18-5.42l.17-30.51Z"/>
          <path class="cls-1" d="M266,172.09l-.23,30.34s-4,5.41-7,1.22,5.55-2.6,5.55-2.6l.29-29.16Z"/>
        </g>
      </g>
      <g id="Layer_19" data-name="Layer 19">
        <g>
          <path class="cls-3" d="M365.83,238.18l-47.39-5.77c-.31,0-.55-.48-.55-1V82.93c0-.5.24-1,.55-1L365.83,71c.37-.08.68.31.68.87v165.4C366.51,237.8,366.2,238.23,365.83,238.18Z"/>
          <path class="cls-3" d="M367.45,238.38,323.59,233c-1.37-.17-2.49-2.15-2.49-4.41V85.37c0-2.25,1.12-4.36,2.49-4.67l43.86-10.1c1.68-.39,3.06,1.35,3.06,3.87V234.18C370.51,236.69,369.13,238.58,367.45,238.38Z"/>
          <g>
            <path class="cls-15" d="M359,72.87s-.65-19.33,8.66-26.87c0,0,18.23,2,17.14,33.38,0,0-13.05,20.87-11.32,40.24,0,0,5.76-2.12,7-18.36,0,0,4.3,13.68-2.83,31.53,0,0-3.9,2.79-7.27,1.23l-.67-53.39C369,73.52,366,70,359,72.87Z"/>
            <path class="cls-5" d="M362.31,64.87s10.39-1.49,11.47,9l-2.68,3.17v3.37s-5.36-8.2-10.46-8l2.13-2.53Z"/>
          </g>
          <polygon class="cls-16" points="365.19 224.27 318.95 219.99 318.95 95.59 365.19 86.43 365.19 224.27"/>
          <path class="cls-1" d="M347.79,78l-12.45,2.79c-.16,0-.29-.14-.29-.4v-.92a.53.53,0,0,1,.29-.53l12.45-2.84c.17,0,.31.14.31.4v1A.54.54,0,0,1,347.79,78Z"/>
          <path class="cls-6" d="M332.48,85.09c0,1.27-.64,2.44-1.42,2.6s-1.41-.73-1.41-2,.63-2.42,1.41-2.59S332.48,83.82,332.48,85.09Z"/>
          <path class="cls-1" d="M318.32,178.21c-18.2,17.32-9.35,22.63,3.73,41.7l.41.57c.37,4.3,1.89,5.42,4.27,4.33,1.36-1.18-3.66-5.61-3.73-5.67-11-15.4-22.39-23-4.91-39.43a1.38,1.38,0,0,0,.31-.5C318.5,179,318.69,178.1,318.32,178.21Z"/>
          <path class="cls-1" d="M366.42,179.64s12.85-17.52,25-52.21c.13-.35.25-.7.37-1.05,0,0,6.08-3.11,2.34-9.87,0,0-1.26-2.83-3.64,9.2,0,0-10.1,28.62-24.15,52.22a2.21,2.21,0,0,0-.26.66C366,179.09,366.12,180,366.42,179.64Z"/>
          <path class="cls-1" d="M352.54,235.33l-.28,35.27s4.78,8.48,8.72,5.21-6.93-6.07-6.93-6.07l.19-34.18Z"/>
          <path class="cls-1" d="M332.66,234.09l-.26,34s-4.46,6.06-7.85,1.37,6.22-2.92,6.22-2.92l.32-32.66Z"/>
          <path class="cls-1" d="M350.22,134.72s-3-11.86-9.34-1.9c0,0-.92,3.18,1.12,1.45s3.51-5.3,7.21.74C349.21,135,350.3,137.54,350.22,134.72Z"/>
          <path class="cls-1" d="M332.83,159.05s-2.63-3.47-1.39,1.73c0,0,2,6,2.66,8.67.52,2,10.4,33.28,13.5-.87,0,0,1-5.74,1.88-9.24,0,0,1.33-6-1.49-1.85S341.77,176.41,332.83,159.05Z"/>
          <path class="cls-1" d="M327.84,140.5S329,128,336.2,134.19c0,0,1.3,2.59-.88,1.94s-4-3.29-6.54,4.17C328.78,140.3,328.12,143.16,327.84,140.5Z"/>
        </g>
      </g>
    </g>
    <g>
      <g>
        <path class="cls-1" d="M852.54,235.33l-.28,35.27s4.78,8.48,8.72,5.21-6.93-6.07-6.93-6.07l.19-34.18Z"/>
        <path class="cls-1" d="M832.66,234.09l-.26,34s-4.46,6.06-7.85,1.37,6.22-2.92,6.22-2.92l.32-32.66Z"/>
        <g>
          <g>
            <path class="cls-3" d="M865.84,238.11c-15.8-1.78-31.6-3.75-47.39-5.75-.41-.05-.55-.31-.55-1,.2-50.47-5-96.57-10.75-146.65-.08-.68,0-1,.41-1.11q22.91-8.23,45.84-16.25c.48-.17.68,0,.77.79,6.64,57.47,12.68,111,12.37,169C866.53,237.94,866.34,238.16,865.84,238.11Z"/>
            <path class="cls-3" d="M867.47,238.1c-14.63-1.19-29.25-3.16-43.88-5.29-1.83-.27-2.46-1.41-2.45-4.44.2-48.12-5-93.66-10.49-141.41-.35-3,.16-4.3,1.92-5C826.65,76.67,840.8,71.44,855,67c2.16-.68,3.06.08,3.46,3.53,6.37,54.74,12.91,108,12.1,163.28C870.5,237.3,869.71,238.28,867.47,238.1Z"/>
            <path class="cls-16" d="M865.37,224.09c-15.45-1.2-30.86-2.7-46.29-4.09,1.4-41.78-4.67-81.48-9.44-122.9l44.89-14.38C860,130.53,866,175.78,865.37,224.09Z"/>
          </g>
          <g>
            <path class="cls-15" d="M846.83,69.74c-1.22-9.5-.3-19.25,5.53-27.46,15.48,1.26,18.8,19,20.85,31.18a78.5,78.5,0,0,0-6.64,41.28c5.49-3.65,4.8-13.62,4.87-19,4.06,10.28,2.94,21.1.8,31.67-2.09,1.63-4.35,2.77-7.08,1.84-2.16-14.55-4.66-39.33-6.74-51.46S853.66,69.93,846.83,69.74Z"/>
            <path class="cls-5" d="M849.19,61.63c6.45-1.34,10.21,1.82,12.43,7.65l-2.3,3.45c.13,1.12.25,2.23.38,3.35-3-3.49-6.53-6.47-11.3-6.74l1.83-2.76C849.88,64.93,849.54,63.28,849.19,61.63Z"/>
          </g>
          <path class="cls-1" d="M836.27,76.3q-6,2.13-12,4.2c-.21.07-.3-.16-.33-.37s-.08-.67-.1-.89,0-.49.22-.56q6-2.15,12-4.25c.21-.07.32.16.35.38s.08.68.1.92S836.49,76.23,836.27,76.3Z"/>
          <path class="cls-6" d="M821.86,85.15c.08.88-.08,2.37-1.11,2.68s-1.52-.91-1.6-1.79.07-2.35,1.1-2.67S821.77,84.27,821.86,85.15Z"/>
          <path class="cls-1" d="M845.18,132.41c-2.6-6-5.82-6.48-9.53-.78.22.63-.62,3.31,1.48,1s4.2-4,7.06.23C845,133.92,845.29,134,845.18,132.41Z"/>
          <path class="cls-1" d="M830.75,158.42c-2.2-1.78-1.65.31-1.34,1.8,2.76,6.05.58,1.22,4.45,10.11,3,6.8,12.92,28.65,12.56-4,.41-2.49.66-6.26.84-9.2,0-.48,1-7.62-2-.77S839.8,173.1,830.75,158.42Z"/>
          <path class="cls-1" d="M823.6,140.7c.11-5.47,1.48-9.95,7.64-7.2-.12.73,1.89,2.47-1,1.87s-5.24.49-5.65,5C824.31,141.49,824.13,142.4,823.6,140.7Z"/>
        </g>
        <path class="cls-1" d="M818.32,178.21c-18.2,17.32-9.35,22.63,3.73,41.7l.41.57c.37,4.3,1.89,5.42,4.27,4.33,1.36-1.18-3.66-5.61-3.73-5.67-11-15.4-22.39-23-4.91-39.43a1.38,1.38,0,0,0,.31-.5C818.5,179,818.69,178.1,818.32,178.21Z"/>
        <path class="cls-1" d="M866.77,178.5c20.94,22.26,17.94,19.29-5.65,40.12a4.07,4.07,0,0,0-.67.63c-1.3,3.67-2.74,4.94-7.56,5-1.57,0,4.75-5.59,6.69-5.74,18.25-16.21,27.65-17.38,7-38.61a.67.67,0,0,1-.14-.57C866.48,179.24,866.15,177.83,866.77,178.5Z"/>
      </g>
      <g>
        <path class="cls-9" d="M797.07,175.92l-39.15-4.77c-1.23-.15-2.22-1.92-2.22-3.94V39.33c0-2,1-3.89,2.22-4.17l39.15-9c1.5-.34,2.73,1.21,2.73,3.46V172.16C799.8,174.41,798.57,176.1,797.07,175.92Z"/>
        <path class="cls-9" d="M795.62,175.74l-42.3-5.15c-.27,0-.5-.43-.5-.89V37.15c0-.45.23-.87.5-.93l42.3-9.75c.34-.07.61.28.61.78V174.9C796.23,175.4,796,175.78,795.62,175.74Z"/>
        <polygon class="cls-12" points="795.06 163.32 753.78 159.5 753.78 48.45 795.06 40.28 795.06 163.32"/>
        <path class="cls-1" d="M779.52,32.73l-11.11,2.49c-.14,0-.26-.13-.26-.35V34c0-.23.12-.44.26-.47L779.52,31c.15,0,.27.13.27.37v.85C779.79,32.48,779.67,32.7,779.52,32.73Z"/>
        <path class="cls-6" d="M765.85,39.08c0,1.13-.57,2.17-1.27,2.32s-1.26-.65-1.26-1.78.57-2.16,1.26-2.31S765.85,38,765.85,39.08Z"/>
        <path class="cls-13" d="M797.6,39.56l.48,1.14s5.65,1.77,8.07-2.63-4.08-9.47-5.06-9.63S797.6,39.56,797.6,39.56Z"/>
        <path class="cls-14" d="M800.6,32.69s-1.13,4.06-1.61,6.25a3.58,3.58,0,0,1-1.16,1.5c-.71.42-12.69,2.33-17.36-1.58s-5.08-5.54-5-9c0,0,2.6-14.75,8-18.63,0,0,2.28-2.65,9.15-1.26,7.1,1.43,8.9,9,8.9,9S803.62,23.26,800.6,32.69Z"/>
        <path class="cls-13" d="M792.41,9.48a2.53,2.53,0,0,1,1.42.34c.58.4-.21,1.16-.21,1.16s-1.19-.08-1.45-.72S792.41,9.48,792.41,9.48Z"/>
        <path class="cls-1" d="M769.53,86.39c0-.13-.1-.21-.18-.18l-9.14,3.22c-.08,0-.13.16-.12.3v.1c0,.13.09.21.17.18l2.36-.85a8.75,8.75,0,0,0,1.09,3.71,2.1,2.1,0,0,0,.47.58c3.91,3.26,3.7-6.2,3.7-6.2h0l1.51-.55A.29.29,0,0,0,769.53,86.39Z"/>
        <path class="cls-1" d="M774.59,85.46c0-.13.1-.22.18-.21l9.85,1.51c.09,0,.15.15.14.29l0,.11c0,.15-.1.25-.19.23L781.92,87A10,10,0,0,1,780.73,91a2.55,2.55,0,0,1-.5.68c-4.15,4-3.94-5.7-3.94-5.7h0l-1.57-.26C774.63,85.74,774.57,85.61,774.59,85.46Z"/>
        <path class="cls-1" d="M763.28,123l9.47-3,10-3.15s3.47,19.75-9.27,19.18C761.55,135.48,763.28,123,763.28,123Z"/>
        <path class="cls-1" d="M753.21,122.21c-16.24,15.45-8.35,20.19,3.33,37.22l.37.51c.33,3.84,1.69,4.83,3.81,3.86,1.21-1.05-3.27-5-3.33-5.05-9.84-13.75-20-20.56-4.38-35.21a1.4,1.4,0,0,0,.28-.45C753.37,122.9,753.55,122.11,753.21,122.21Z"/>
        <path class="cls-1" d="M796.57,122.91s6-18.43,6.81-51.24c0-.33,0-.66,0-1,0,0,4.31-4.32-.74-9,0,0-1.85-2.06-.54,8.81,0,0-.67,27.09-6.08,51a2.27,2.27,0,0,0,0,.64C796,122.56,796.39,123.25,796.57,122.91Z"/>
        <path class="cls-1" d="M783.76,173.19l-.25,31.49s4.27,7.57,7.78,4.65-6.18-5.42-6.18-5.42l.17-30.51Z"/>
        <path class="cls-1" d="M766,172.09l-.23,30.34s-4,5.41-7,1.22,5.55-2.6,5.55-2.6l.29-29.16Z"/>
      </g>
      <g>
        <path class="cls-1" d="M669.29,186.89l-.47,32.35s4.27,8,7.86,5.15-6.24-5.86-6.24-5.86l.39-31.37Z"/>
        <path class="cls-1" d="M642.38,183.32l-.4,30s-3.76,5.21-6.57,1,5.21-2.38,5.21-2.38l.45-28.84Z"/>
        <g>
          <g>
            <path class="cls-2" d="M672.5,186.11c-9.77,1.53-16.17.12-25.39-3.6-5.92-2.38-7.16-3.47-7-14.08.87-43.78-.06-61.6-8.29-105.55-2-10.64-1-11.92,4.16-15.92,8.08-6.22,14.08-9.72,23.75-11,7.3-.94,8.45-.5,10.61,10.68,8.89,46.19,12.79,77.75,11,125.4C680.89,183.6,679.89,185,672.5,186.11Z"/>
            <path class="cls-2" d="M670.91,186.33c-11.14.73-19.14-1-29.88-4.17-4-1.16-4.75-2.22-4.72-9.7.2-47.28.19-64.58-8.87-112.6-1.44-7.59-.79-8.66,2.78-11,9.59-6.16,17.15-10.34,27.94-12.86,4.81-1.12,5.71-.82,7.26,7.29,9.82,51.33,14.35,80.53,11.39,133.65C676.34,185.39,675.87,186,670.91,186.33Z"/>
            <path class="cls-3" d="M672.79,180a162.77,162.77,0,0,1-33.27-4.08c-2.29-.49-3-1-2.78-5.81,2.27-47.44.63-60.21-8.38-107.28-.91-4.74-.45-5.41,1.65-6.55a176.38,176.38,0,0,1,31.28-13.71c2.73-.86,3.45-.43,4.39,4.5,9.32,49,13.05,76.38,10.84,126.9C676.3,179,675.63,180,672.79,180Z"/>
          </g>
          <g>
            <path class="cls-4" d="M639.87,45.75c-2.22-10.46-6.6-18.61-15.19-25.42-17,7.76-16,19.64-14.39,36.22,10.62,11.58,17.43,23.52,21.16,38.83C624.16,92.12,622,85.12,619.59,78c-.62,11.9,3.4,21.29,9.32,31.41,3.13.89,5.86,1.33,8.81-.38-2.22-15.87-7-37.06-8.48-51.7S631.09,49.05,639.87,45.75Z"/>
            <path class="cls-5" d="M634.57,38.52c-7.08.81-10.64,3.71-12,10.78l3.81,2.78.63,3.4c2.79-4.57,5.84-7.78,11-9.62l-3-2.21Z"/>
          </g>
          <path class="cls-1" d="M646.84,45l-5.1,2.29c-.15.07-.25-.16-.27-.27h0c0-.11,0-.39.14-.46l5.1-2.29c.16-.07.26.16.28.27h0C647,44.63,647,44.91,646.84,45Z"/>
          <path class="cls-6" d="M651.71,44.39h0c-.67.25-1.06-.51-1.15-1.08,0,0,0,0,0,0-.08-.57-.06-1.61.61-1.86h0c.67-.25,1.07.51,1.15,1.08,0,0,0,0,0,0C652.41,43.1,652.38,44.15,651.71,44.39Z"/>
          <path class="cls-7" d="M643.76,98.73A71.76,71.76,0,0,1,650,104.8a1.72,1.72,0,0,1,.27,2.21c-1.42,2.44-3.18,4.73-4.77,7-.3.44-.64-.13-.47-.7.61-2,1.61-4.31,2.28-6.41a1.6,1.6,0,0,0-.17-1.42c-1.14-1.93-2.59-4.14-3.7-6C643.12,99,643.31,98.35,643.76,98.73Z"/>
          <path class="cls-7" d="M664.1,94.7c-1.58,2.64-3.13,5.55-4.52,8.27a1.71,1.71,0,0,0,.34,2.22c2.12,1.94,4.38,3.69,6.42,5.71.4.4.63-.3.35-.88a43.9,43.9,0,0,0-3.85-5.88,1.58,1.58,0,0,1-.23-1.45c.62-2.36,1.51-5.09,2.06-7.36C664.84,94.64,664.43,94.14,664.1,94.7Z"/>
          <path class="cls-8" d="M646.41,130.94c3.77-.52,7.17-.61,10.9-.87s7.79-.41,11.49-.49c1.06,8.79-1.74,23.31-12.82,20.59C645.75,147.66,646.65,139.15,646.41,130.94Z"/>
        </g>
        <path class="cls-1" d="M636.08,135.24c-15,19.17-10.23,19.26,4.09,38.5.13.19.33.43.42.6.49,3,1.59,4.06,5,5.3,1.12.4-2.88-5.06-4.28-5.59-11.59-15.67-18.9-19.46-5.1-37.61a.9.9,0,0,0,.14-.52S636.57,134.62,636.08,135.24Z"/>
        <path class="cls-1" d="M678.77,136.5c20.94,22.26,17.94,19.29-5.65,40.12a4.07,4.07,0,0,0-.67.63c-1.3,3.67-2.74,4.94-7.56,5-1.57,0,4.75-5.59,6.69-5.74,18.25-16.21,27.65-17.38,7-38.61a.67.67,0,0,1-.14-.57C678.48,137.24,678.15,135.83,678.77,136.5Z"/>
      </g>
      <g>
        <path class="cls-1" d="M721.67,219.1l-.55,37.38s4.94,9.23,9.08,5.95-7.21-6.77-7.21-6.77l.45-36.24Z"/>
        <path class="cls-1" d="M690.58,215l-.47,34.68s-4.35,6-7.6,1.12,6-2.75,6-2.75l.52-33.32Z"/>
        <g>
          <path class="cls-9" d="M725,218.86c-9.58.45-19-1.11-28.86-4.12-6.3-1.94-8-4.87-8.57-15.82-2.18-45.23,4.87-87.44,13.4-131.49,2.07-10.67,4.57-13.38,11.13-14.75,10.21-2.15,20.14-3.17,29.76-2,7.28.89,9.43,4,7.34,15.14-8.66,45.76-18.73,91.42-14.93,138.43C735.23,215.62,732.29,218.51,725,218.86Z"/>
          <path class="cls-9" d="M723.17,219c-11.28-.18-22.5-2.08-34-4.81-4.27-1-5.5-3.15-5.87-10.95-2.36-49.35,5-92.51,14.12-140.55,1.45-7.59,3.2-9.51,7.63-10.18,11.89-1.79,23.58-3,35-2.33,5.1.3,6.61,2.38,5.09,10.42-9.56,50.89-18.87,96.06-15.41,148.29C730.31,217.15,728.2,219.07,723.17,219Z"/>
          <path class="cls-3" d="M725.28,211.41a303.1,303.1,0,0,1-38.06-4.78c-2.53-.48-3.38-1.82-3.58-6.6-2-47.53,4.82-87.17,13.53-133.46.87-4.66,1.94-5.81,4.55-6a362.92,362.92,0,0,1,39.07-1.85c3.1,0,4,1.45,3.06,6.33-9.07,48.56-18.1,90.44-14.8,140.28C729.38,210.29,728.33,211.6,725.28,211.41Z"/>
          <path class="cls-1" d="M724.3,55.71c-2.15.1-4.3.25-6.45.35-.19,0-.21-.28-.19-.39h0c0-.11.15-.44.35-.45,2.15-.1,4.3-.25,6.45-.36.2,0,.22.28.2.39h0C724.63,55.37,724.5,55.7,724.3,55.71Z"/>
          <path class="cls-6" d="M729.79,57.09h0c-.81,0-.92-1-.79-1.65h0c.14-.66.61-1.75,1.43-1.76h0c.82,0,.93,1,.8,1.65h0C731.09,56,730.61,57.08,729.79,57.09Z"/>
          <path class="cls-8" d="M691.32,151.31c4.59.4,8.56.94,13,1.53s9.48,1.12,13.84,2c.17,10.73-2.47,26.38-15.28,21.64C691.1,172.1,689.61,161.53,691.32,151.31Z"/>
          <path class="cls-10" d="M697.4,108.72c0-1.09.6-1.52,1.65-1.31,8,.8,15.61,2.12,23.81,1.78.64,0,.68,1.65.25,2.28"/>
          <path class="cls-10" d="M687,119.56a1.66,1.66,0,0,1-1.78,1.36,1.32,1.32,0,0,1-1.21-1.63,1.66,1.66,0,0,1,1.77-1.36A1.34,1.34,0,0,1,687,119.56Z"/>
          <path class="cls-10" d="M734,123.66a1.82,1.82,0,0,1-2,1.4,1.49,1.49,0,0,1-1.43-1.75,1.8,1.8,0,0,1,2-1.39A1.49,1.49,0,0,1,734,123.66Z"/>
          <path class="cls-11" d="M706.07,111.5c-6.59-3.75-12.6-3.66-18.19,1.63a26.28,26.28,0,0,0-3.47,14.1c.4,3.91,1.16,6.15,4.75,6.62s6.74-1.53,9.49-4.61S709.49,116,706.07,111.5Z"/>
          <path class="cls-10" d="M706.07,111.5c-6.59-3.75-12.6-3.66-18.19,1.63a26.28,26.28,0,0,0-3.47,14.1c.4,3.91,1.16,6.15,4.75,6.62s6.74-1.53,9.49-4.61S709.49,116,706.07,111.5Z"/>
          <path class="cls-11" d="M713.73,112.15c7.45-2.42,14.17-2.12,18.51,4.91A24.76,24.76,0,0,1,730.48,132c-1.94,3.8-3.86,5.78-7.7,5.36s-6.43-2.59-8.23-6.58S709.05,115.66,713.73,112.15Z"/>
          <path class="cls-10" d="M713.73,112.15c7.45-2.42,14.17-2.12,18.51,4.91A24.76,24.76,0,0,1,730.48,132c-1.94,3.8-3.86,5.78-7.7,5.36s-6.43-2.59-8.23-6.58S709.05,115.66,713.73,112.15Z"/>
          <path class="cls-10" d="M706.83,115.23c1.84-2.23,3.47-2.27,4.76.42"/>
        </g>
        <path class="cls-1" d="M729.56,161.34c31.83,18.83,13.38,26.63-7.42,46.27a7.46,7.46,0,0,0-.74.75c-1.35,4.3-3,5.81-8.53,6-1.81.07,5.27-6.65,7.5-6.91,18-17.16,36.52-25,9.44-44.58-.17-.12-.4-.48-.36-.56S728.61,160.78,729.56,161.34Z"/>
        <path class="cls-1" d="M683.72,159.34c-31.83,18.83-13.39,26.63,7.41,46.27a5.8,5.8,0,0,1,.74.75c1.36,4.3,3,5.81,8.54,6,1.81.07-5.27-6.65-7.5-6.91-18-17.16-36.52-25-9.45-44.58.18-.12.41-.48.37-.56S684.67,158.78,683.72,159.34Z"/>
      </g>
    </g>
    <g id="Layer_23" data-name="Layer 23">
      <g>
        <path class="cls-1" d="M1352.54,235.33l-.28,35.27s4.78,8.48,8.72,5.21-6.93-6.07-6.93-6.07l.19-34.18Z"/>
        <path class="cls-1" d="M1332.66,234.09l-.26,34s-4.46,6.06-7.85,1.37,6.22-2.92,6.22-2.92l.32-32.66Z"/>
        <g>
          <g>
            <path class="cls-3" d="M1365.81,238.1c-15.85-1.83-31.54-3.71-47.39-5.79-.41-.05-.52-.26-.52-1,.06-54,5.75-95.21,13.41-148.68.1-.73.23-.94.65-1,16.23-1.52,32.28-2.9,48.51-4.13.51,0,.64.19.53,1-8.12,57.1-15.81,100.93-14.53,158.66C1366.49,237.94,1366.31,238.16,1365.81,238.1Z"/>
            <path class="cls-3" d="M1367.49,238c-15-1.1-29.07-2.9-44-5.36-1.87-.31-2.37-1.26-2.36-4.48,0-51.09,5.7-91.6,13-142.26.45-3.2,1.1-4.12,3-4.36,15.33-1.89,29.72-3.27,45-3.79,2.35-.07,2.86,1,2.38,4.33-7.64,53.66-15.7,97.41-14.16,151.69C1370.47,237.16,1369.79,238.14,1367.49,238Z"/>
            <path class="cls-16" d="M1364.91,224.4c-15.29-1.62-30.61-3-45.92-4.43-2.14-43.63,5.52-81.66,11.59-124.77l47.07-2.55C1371,139.12,1363.67,177.42,1364.91,224.4Z"/>
          </g>
          <g>
            <path class="cls-15" d="M1373.52,78c1.58-9.69,4.88-18,12.27-25,14,7.65,13.4,21.12,12.27,35.45a89.16,89.16,0,0,0-16.87,38.25c6.42-3.59,7.78-10.54,9.53-17.2.65,11.27-2.46,20.74-7.25,30.83-2.6.92-4.82,1.53-7.3-.19,1.68-14.87,5.28-37.2,6.34-50.34S1381,81.93,1373.52,78Z"/>
            <path class="cls-5" d="M1377.83,70.9c6.48.91,9,4.26,10.08,10.55l-3.1,2.75c-.16,1.11-.31,2.23-.47,3.34-2.25-4.26-4.69-7.49-9.23-9.38l2.47-2.21C1377.66,74.27,1377.74,72.58,1377.83,70.9Z"/>
          </g>
          <path class="cls-1" d="M1361.62,81.82c-4.25.36-8.48.7-12.73,1-.22,0-.25-.23-.22-.44s.08-.64.12-.87.14-.47.36-.49c4.25-.37,8.48-.73,12.73-1,.23,0,.27.23.24.45s-.09.66-.13.9S1361.85,81.8,1361.62,81.82Z"/>
          <path class="cls-6" d="M1345.41,86.74c-.15.9-.63,2.23-1.73,2.25s-1.24-1.19-1.09-2.1.63-2.21,1.73-2.24S1345.56,85.84,1345.41,86.74Z"/>
          <path class="cls-1" d="M1356,138.35c-1.37-6.14-4-7.09-9-3.14.18,1.22-1.32,2.78,1.38,1.21s5.23-1.86,6.61,2.16C1355.32,139.61,1355.86,139.66,1356,138.35Z"/>
          <path class="cls-1" d="M1335.56,159.78c-1.81-1.84-1.63.22-1.9,1.16,1.52,8.48,0,.79,2.17,13.4,1.69,9.65,8,21.56,12.66-3.81,1.4-2.19,2.19-5.06,3.31-8.49.18-.56,2.83-7-2.24-.18S1339.49,174.56,1335.56,159.78Z"/>
          <path class="cls-1" d="M1333.06,140.91c1.69-5.19,3.79-8.46,9.23-5-.56,1.3,1.19,2.59-1.66,1.48s-5.41.09-6.6,3.54C1333.74,141.75,1333,142.46,1333.06,140.91Z"/>
        </g>
        <path class="cls-1" d="M1318.32,178.21c-18.2,17.32-9.35,22.63,3.73,41.7l.41.57c.37,4.3,1.89,5.42,4.27,4.33,1.36-1.18-3.66-5.61-3.73-5.67-11-15.4-22.39-23-4.91-39.43a1.38,1.38,0,0,0,.31-.5C1318.5,179,1318.69,178.1,1318.32,178.21Z"/>
        <path class="cls-1" d="M1368.77,178.5c20.94,22.26,17.94,19.29-5.65,40.12a4.07,4.07,0,0,0-.67.63c-1.3,3.67-2.74,4.94-7.56,5-1.57,0,4.75-5.59,6.69-5.74,18.25-16.21,27.65-17.38,7-38.61a.67.67,0,0,1-.14-.57C1368.48,179.24,1368.15,177.83,1368.77,178.5Z"/>
      </g>
      <g id="Layer_25" data-name="Layer 25">
        <g>
          <path class="cls-9" d="M1297.07,175.92l-39.15-4.77c-1.23-.15-2.22-1.92-2.22-3.94V39.33c0-2,1-3.89,2.22-4.17l39.15-9c1.5-.34,2.73,1.21,2.73,3.46V172.16C1299.8,174.41,1298.57,176.1,1297.07,175.92Z"/>
          <path class="cls-9" d="M1295.62,175.74l-42.3-5.15c-.27,0-.5-.43-.5-.89V37.15c0-.45.23-.87.5-.93l42.3-9.75c.34-.07.61.28.61.78V174.9C1296.23,175.4,1296,175.78,1295.62,175.74Z"/>
          <polygon class="cls-12" points="1295.06 163.32 1253.78 159.5 1253.78 48.45 1295.06 40.28 1295.06 163.32"/>
          <path class="cls-1" d="M1279.52,32.73l-11.11,2.49c-.14,0-.26-.13-.26-.35V34c0-.23.12-.44.26-.47L1279.52,31c.15,0,.27.13.27.37v.85C1279.79,32.48,1279.67,32.7,1279.52,32.73Z"/>
          <path class="cls-6" d="M1265.85,39.08c0,1.13-.57,2.17-1.27,2.32s-1.26-.65-1.26-1.78.57-2.16,1.26-2.31S1265.85,38,1265.85,39.08Z"/>
          <path class="cls-13" d="M1297.6,39.56l.48,1.14s5.65,1.77,8.07-2.63-4.08-9.47-5.06-9.63S1297.6,39.56,1297.6,39.56Z"/>
          <path class="cls-14" d="M1300.6,32.69s-1.13,4.06-1.61,6.25a3.58,3.58,0,0,1-1.16,1.5c-.71.42-12.69,2.33-17.36-1.58s-5.08-5.54-5-9c0,0,2.6-14.75,8-18.63,0,0,2.28-2.65,9.15-1.26,7.1,1.43,8.9,9,8.9,9S1303.62,23.26,1300.6,32.69Z"/>
          <path class="cls-13" d="M1292.41,9.48a2.53,2.53,0,0,1,1.42.34c.58.4-.21,1.16-.21,1.16s-1.19-.08-1.45-.72S1292.41,9.48,1292.41,9.48Z"/>
          <path class="cls-1" d="M1269.53,86.39c0-.13-.1-.21-.18-.18l-9.14,3.22c-.08,0-.13.16-.12.3v.1c0,.13.09.21.17.18l2.36-.85a8.75,8.75,0,0,0,1.09,3.71,2.1,2.1,0,0,0,.47.58c3.91,3.26,3.7-6.2,3.7-6.2h0l1.51-.55A.29.29,0,0,0,1269.53,86.39Z"/>
          <path class="cls-1" d="M1274.59,85.46c0-.13.1-.22.18-.21l9.85,1.51c.09,0,.15.15.14.29l0,.11c0,.15-.1.25-.19.23l-2.63-.43a10,10,0,0,1-1.19,4.08,2.55,2.55,0,0,1-.5.68c-4.15,4-3.94-5.7-3.94-5.7h0l-1.57-.26C1274.63,85.74,1274.57,85.61,1274.59,85.46Z"/>
          <path class="cls-1" d="M1263.28,123l9.47-3,10-3.15s3.47,19.75-9.27,19.18C1261.55,135.48,1263.28,123,1263.28,123Z"/>
          <path class="cls-1" d="M1253.21,122.21c-16.24,15.45-8.35,20.19,3.33,37.22l.37.51c.33,3.84,1.69,4.83,3.81,3.86,1.21-1.05-3.27-5-3.33-5.05-9.84-13.75-20-20.56-4.38-35.21a1.4,1.4,0,0,0,.28-.45C1253.37,122.9,1253.55,122.11,1253.21,122.21Z"/>
          <path class="cls-1" d="M1296.15,123.48s11.47-15.64,22.35-46.61c.11-.31.22-.62.32-.93,0,0,5.44-2.78,2.09-8.81,0,0-1.12-2.53-3.24,8.21,0,0-9,25.55-21.57,46.61a2.12,2.12,0,0,0-.23.6C1295.76,123,1295.88,123.76,1296.15,123.48Z"/>
          <path class="cls-1" d="M1283.76,173.19l-.25,31.49s4.27,7.57,7.78,4.65-6.18-5.42-6.18-5.42l.17-30.51Z"/>
          <path class="cls-1" d="M1266,172.09l-.23,30.34s-4,5.41-7,1.22,5.55-2.6,5.55-2.6l.29-29.16Z"/>
        </g>
      </g>
      <g>
        <path class="cls-1" d="M1169.29,186.89l-.47,32.35s4.27,8,7.86,5.15-6.24-5.86-6.24-5.86l.39-31.37Z"/>
        <path class="cls-1" d="M1142.38,183.32l-.4,30s-3.76,5.21-6.57,1,5.21-2.38,5.21-2.38l.45-28.84Z"/>
        <g>
          <g>
            <path class="cls-2" d="M1172.62,185.78c-10.11,1.92-16.07.5-25.72-3.65-6.19-2.66-6.7-5-7-14.28-1.27-38.24.93-67.69,4.91-105.72,1-9.21,2.09-11.7,8.37-14.25,9.77-4,16.08-5.78,26.21-3.8,7.67,1.5,8,3.4,7,13.4-4.18,41.28-6.08,73.15-5.35,114.25C1181.21,181.68,1180.27,184.32,1172.62,185.78Z"/>
            <path class="cls-2" d="M1171.08,186.09c-11.42.83-19.26-.69-30.26-4.25-4.09-1.33-4.62-3.31-4.85-9.91-1.5-41.77,1.15-72.62,5.43-114,.68-6.55,1.45-8.55,5.63-9.84,11.21-3.49,19.31-5.3,30.85-4.46,5.15.38,5.42,2.25,4.72,9.14-4.4,43.56-4.36,81.43-5.91,124C1176.44,183.46,1176.18,185.71,1171.08,186.09Z"/>
            <path class="cls-3" d="M1172.85,179.81c-12,0-21.72-1.55-33.53-4.12-2.34-.5-3-2.08-3-5.95.34-38.52,1.37-70.38,5.18-109,.39-3.88.94-5.37,3.31-5.88,12-2.59,22.07-4.25,34.23-4.29,2.92,0,3.23,1.37,2.79,5.63-4.36,42.37-4.78,75.87-5.48,117.51C1176.27,177.94,1175.74,179.8,1172.85,179.81Z"/>
          </g>
          <g>
            <path class="cls-4" d="M1157.41,47.37c.45-10.63-1.56-19.47-7.36-28.59-19.13,4.55-20.51,12.87-24.07,30.65a97.29,97.29,0,0,1,9.3,43.23c-5.58-5.81-6.13-12.26-6.46-20-3.32,11.33-2.54,21.38,0,32.79,2.82,1.65,5.24,2.79,8.56,2,2.35-16.1,3.63-36.32,6.51-51.4S1146.9,48.3,1157.41,47.37Z"/>
            <path class="cls-5" d="M1154.38,39c-7-.83-10.92.89-14.57,6.94l2.86,3.74-.36,3.44c4-3.46,7.9-5.53,13.24-6.12l-2.25-3Z"/>
          </g>
          <path class="cls-1" d="M1164.32,48.69l-5.54.75c-.17,0-.2-.21-.19-.34s0,.13,0,0,.1-.36.27-.39c1.84-.25,3.69-.52,5.54-.75.17,0,.21.2.19.33h0C1164.57,48.42,1164.49,48.67,1164.32,48.69Z"/>
          <path class="cls-6" d="M1169.15,49.49h0c-.71,0-.87-.77-.79-1.35,0,0,0,0,0,0,.08-.58.39-1.56,1.11-1.6h0c.71,0,.88.78.79,1.36,0,0,0,0,0,0C1170.18,48.48,1169.87,49.46,1169.15,49.49Z"/>
          <path class="cls-7" d="M1146.1,99.35a63.33,63.33,0,0,1,4.29,7.56,1.66,1.66,0,0,1-.31,2.15c-2,1.92-4.27,3.61-6.37,5.43-.4.34-.59-.33-.27-.82,1.1-1.72,2.61-3.66,3.8-5.46a1.57,1.57,0,0,0,.21-1.4c-.54-2.15-1.26-4.66-1.84-6.68C1145.44,99.5,1145.76,98.86,1146.1,99.35Z"/>
          <path class="cls-7" d="M1166.79,101.14c-2.31,2-4.58,4.35-6.68,6.53a1.57,1.57,0,0,0-.25,2.11c1.52,2.3,3.2,4.45,4.87,6.62.32.43.65-.16.47-.72-.62-1.94-1.5-4.13-2.27-6.14a1.39,1.39,0,0,1,.16-1.38c1.23-2,2.81-4.31,4-6.26C1167.49,101.3,1167.27,100.71,1166.79,101.14Z"/>
          <path class="cls-8" d="M1142.8,131c3.68,0,7.1.39,10.78.74s7.62.75,11.33,1.24c1,7.86,0,19.47-10.44,17.08C1144.79,147.89,1143.58,139.58,1142.8,131Z"/>
        </g>
        <path class="cls-1" d="M1136.08,135.24c-15,19.17-10.23,19.26,4.09,38.5.13.19.33.43.42.6.49,3,1.59,4.06,5.05,5.3,1.12.4-2.88-5.06-4.28-5.59-11.59-15.67-18.9-19.46-5.1-37.61a.9.9,0,0,0,.14-.52S1136.57,134.62,1136.08,135.24Z"/>
        <path class="cls-1" d="M1178.77,136.5c20.94,22.26,17.94,19.29-5.65,40.12a4.07,4.07,0,0,0-.67.63c-1.3,3.67-2.74,4.94-7.56,5-1.57,0,4.75-5.59,6.69-5.74,18.25-16.21,27.65-17.38,7-38.61a.67.67,0,0,1-.14-.57C1178.48,137.24,1178.15,135.83,1178.77,136.5Z"/>
      </g>
      <g id="Layer_24" data-name="Layer 24">
        <path class="cls-1" d="M1222,218.65l-.54,37.39s4.94,9.22,9.08,5.94-7.21-6.77-7.21-6.77l.45-36.24Z"/>
        <path class="cls-1" d="M1190.87,214.53l-.46,34.68s-4.35,6-7.6,1.11,6-2.75,6-2.75l.52-33.32Z"/>
        <g>
          <path class="cls-9" d="M1225.61,217.83c-11.13,1.67-18.8-.19-29.27-4.11-6.72-2.52-8.39-4.88-7.76-15.73,2.62-44.81-3.7-73.05-11.28-117.47-1.84-10.75-.86-13.63,5.15-17.84,9.35-6.55,16.61-10.9,27.54-12.27,8.26-1,9.88-.07,12,12,8.76,49.83,16.54,89.14,13.56,140.23C1234.83,215,1234,216.57,1225.61,217.83Z"/>
          <path class="cls-9" d="M1223.76,218.08c-12.74.69-22.16-1.41-34.46-4.79-4.58-1.25-5.43-3.25-5.31-10.86.76-48.15-3.42-76.8-11.73-125.28-1.31-7.66-.68-9.81,3.45-12.27,11.11-6.6,20.11-11.6,32.41-14.41,5.49-1.25,6.72-.48,8.24,8.24,9.61,55.12,16.65,92.69,14.14,149C1230.1,216.59,1229.44,217.77,1223.76,218.08Z"/>
          <path class="cls-3" d="M1225.91,210.63c-13.45-.26-25.09-2-38.3-4.64-2.62-.53-3.28-1.81-3.09-6.5,2-46.59-3.13-72.26-11.19-118.8-.81-4.68-.4-6.08,2-7.31,12.32-6.2,23.3-11.34,36.3-15.35,3.13-1,4-.25,5,5,9.11,52.44,15.88,87.68,13.51,141.18C1229.9,209.61,1229.15,210.7,1225.91,210.63Z"/>
          <path class="cls-1" d="M1195,60.72l-5.93,2.57c-.18.08-.29-.19-.31-.32s0,.13,0,0,0-.44.17-.52c2-.86,3.95-1.73,5.93-2.58.18-.08.3.19.32.32h0C1195.18,60.31,1195.16,60.64,1195,60.72Z"/>
          <path class="cls-6" d="M1200.62,60.1h0c-.78.28-1.23-.61-1.32-1.27,0,0,0,0,0,0-.09-.66,0-1.86.73-2.14h0c.77-.28,1.22.61,1.32,1.27,0,0,0,0,0,0C1201.44,58.62,1201.39,59.83,1200.62,60.1Z"/>
          <path class="cls-8" d="M1195.54,158.75c4.5-.75,8.61-1.16,13.08-1.68s9.27-1.3,13.72-1.54c2.57,10.72-2.49,24-14.49,21.87C1196.78,175.46,1196.49,167.69,1195.54,158.75Z"/>
          <path class="cls-10" d="M1188.18,119.72c-.26-1,0-1.53,1.08-1.79a211.86,211.86,0,0,0,23-6.52c.59-.22,1.24,1.47,1,2"/>
          <path class="cls-10" d="M1182.24,133.2a1.49,1.49,0,0,1-1.21,1.69,1.28,1.28,0,0,1-1.65-1,1.5,1.5,0,0,1,1.19-1.71A1.29,1.29,0,0,1,1182.24,133.2Z"/>
          <path class="cls-10" d="M1227.67,121.08a1.75,1.75,0,0,1-1.39,2,1.45,1.45,0,0,1-1.93-1.12,1.77,1.77,0,0,1,1.39-2A1.46,1.46,0,0,1,1227.67,121.08Z"/>
          <path class="cls-11" d="M1197.25,119.35c-7.55-.85-12.45,1.06-16.43,7.74-.64,4-.33,9.82,1.44,13.22s3,5.07,6.77,4.37,5.58-2.62,7.55-6.9S1201.88,123.7,1197.25,119.35Z"/>
          <path class="cls-10" d="M1197.25,119.35c-7.55-.85-12.45,1.06-16.43,7.74-.64,4-.33,9.82,1.44,13.22s3,5.07,6.77,4.37,5.58-2.62,7.55-6.9S1201.88,123.7,1197.25,119.35Z"/>
          <path class="cls-11" d="M1204.69,117.34c6.48-4.71,12-6.31,19.06-1.8,2.45,4,4,10.09,3.45,14.38s-1.3,6.79-5.37,7.75-6.6,0-10.06-3.48S1202.18,123.18,1204.69,117.34Z"/>
          <path class="cls-10" d="M1204.69,117.34c6.48-4.71,12-6.31,19.06-1.8,2.45,4,4,10.09,3.45,14.38s-1.3,6.79-5.37,7.75-6.6,0-10.06-3.48S1202.18,123.18,1204.69,117.34Z"/>
          <path class="cls-10" d="M1199.29,122.5c1.09-2.55,2.42-3,4.6-1.23"/>
        </g>
        <path class="cls-1" d="M1230.85,160.89c31.84,18.84,13.39,26.63-7.41,46.28a5.17,5.17,0,0,0-.74.74c-1.35,4.3-3,5.82-8.53,6.05-1.81.08,5.27-6.65,7.5-6.9,18-17.16,36.52-25,9.44-44.58-.17-.13-.4-.49-.37-.56S1229.91,160.33,1230.85,160.89Z"/>
        <path class="cls-1" d="M1183,158.89c-31.83,18.84-13.39,26.63,7.41,46.28a5.17,5.17,0,0,1,.74.74c1.36,4.3,3,5.82,8.54,6.05,1.81.08-5.27-6.65-7.5-6.9-18-17.16-36.52-25-9.45-44.58.18-.13.41-.49.37-.56S1184,158.33,1183,158.89Z"/>
      </g>
    </g>
  </g>
</svg>
